<?xml version="1.0" encoding="utf-8"?>
<!-- Generator: Adobe Illustrator 24.0.2, SVG Export Plug-In . SVG Version: 6.00 Build 0)  -->
<svg version="1.1" id="Layer_1" xmlns="http://www.w3.org/2000/svg" xmlns:xlink="http://www.w3.org/1999/xlink" x="0px" y="0px"
	 viewBox="0 0 487.4 566.9" style="enable-background:new 0 0 487.4 566.9;" xml:space="preserve">
<style type="text/css">
	.st0{fill:#E9E8E9;}
	.st1{fill:#FFFFFF;}
	.st2{fill:#D6D6D6;}
	.st3{fill:#686B70;}
	.st4{fill:#010101;}
	.st5{fill:#969696;}
	.st6{fill:#FCC5A1;}
	.st7{fill:#E28F77;}
	.st8{fill:#DBDBDB;}
	.st9{fill:none;stroke:#010101;stroke-width:0.5;stroke-linecap:round;stroke-linejoin:round;stroke-miterlimit:10;}
	
		.st10{opacity:0.4;fill:none;stroke:#010101;stroke-width:0.5;stroke-linecap:round;stroke-linejoin:round;stroke-miterlimit:10;enable-background:new    ;}
	.st11{fill:#CBD2D1;}
	.st12{fill:#F2D7AD;}
	.st13{fill:#F4D19D;}
	.st14{fill:#DEB88D;}
	.st15{fill:#500838;}
	.st16{fill:none;stroke:#E28F77;stroke-width:0.5;stroke-linecap:round;stroke-linejoin:round;stroke-miterlimit:10;}
	.st17{fill:none;stroke:#500838;stroke-width:0.5;stroke-linecap:round;stroke-linejoin:round;stroke-miterlimit:10;}
</style>
<circle class="st0" cx="243.7" cy="245.4" r="237.6"/>
<ellipse transform="matrix(0.1356 -0.9908 0.9908 0.1356 -191.1312 281.9443)" class="st1" cx="66" cy="250.5" rx="15.2" ry="15.2"/>
<circle class="st1" cx="104.7" cy="274.4" r="11.1"/>
<circle class="st1" cx="72" cy="304.4" r="10.5"/>
<g>
	<g>
		<polygon class="st1" points="73.3,305.7 70.7,302.9 101.7,274.8 65,252 66.9,248.8 107.9,274.1 		"/>
	</g>
</g>
<circle class="st1" cx="335.6" cy="259" r="18.5"/>
<circle class="st1" cx="376.8" cy="293.6" r="12.8"/>
<circle class="st1" cx="340.8" cy="324.9" r="13.2"/>
<path class="st1" d="M335.6,202.7c-3.4,0-6,2.6-6,6s2.6,6,6,6s6-2.6,6-6S339,202.7,335.6,202.7z M335.6,211.4
	c-1.5,0-2.6-1.1-2.6-2.6s1.1-2.6,2.6-2.6s2.6,1.1,2.6,2.6C338.2,210.2,337.1,211.4,335.6,211.4z"/>
<path class="st1" d="M410.7,283.5c-3.4,0-6,2.6-6,6s2.6,6,6,6s6-2.6,6-6S414.1,283.5,410.7,283.5z M410.7,292.1
	c-1.5,0-2.6-1.1-2.6-2.6s1.1-2.6,2.6-2.6s2.6,1.1,2.6,2.6C413.3,291,412.2,292.1,410.7,292.1z"/>
<path class="st1" d="M382.8,340.3c-3.4,0-6,2.6-6,6s2.6,6,6,6s6-2.6,6-6C388.8,343,386.2,340.3,382.8,340.3z M382.8,349
	c-1.5,0-2.6-1.1-2.6-2.6s1.1-2.6,2.6-2.6s2.6,1.1,2.6,2.6S384.3,349,382.8,349z"/>
<path class="st1" d="M289.1,362.2c-3.4,0-6,2.6-6,6s2.6,6,6,6s6-2.6,6-6C295.1,364.8,292.4,362.2,289.1,362.2z M289.1,370.8
	c-1.5,0-2.6-1.1-2.6-2.6s1.1-2.6,2.6-2.6s2.6,1.1,2.6,2.6C291.7,369.7,290.6,370.8,289.1,370.8z"/>
<path class="st1" d="M370.8,173c-3.4,0-6,2.6-6,6s2.6,6,6,6s6-2.6,6-6S374,173,370.8,173z M370.8,181.6c-1.5,0-2.6-1.1-2.6-2.6
	s1.1-2.6,2.6-2.6s2.6,1.1,2.6,2.6S372.1,181.6,370.8,181.6z"/>
<path class="st1" d="M427.4,218.3c-3.4,0-6,2.6-6,6s2.6,6,6,6s6-2.6,6-6C433.5,221,430.8,218.3,427.4,218.3z M427.4,227
	c-1.5,0-2.6-1.1-2.6-2.6s1.1-2.6,2.6-2.6s2.6,1.1,2.6,2.6C430.1,225.9,428.9,227,427.4,227z"/>
<g>
	<g>
		<polygon class="st1" points="342.2,326.4 339.7,323.6 373.8,293.6 333.7,259.7 333.7,213.2 337.4,213.2 337.4,258 379.6,293.6 		
			"/>
	</g>
</g>
<g>
	<g>
		<polygon class="st1" points="398.1,243.4 368.9,227.4 368.9,183.3 372.7,183.3 372.7,225.1 398.1,239.2 423.3,225.5 425,228.7 		
			"/>
	</g>
</g>
<g>
	<g>
		<polygon class="st1" points="386.4,346.2 384.5,342.8 408.8,330 408.8,293.6 412.6,293.6 412.6,332.2 		"/>
	</g>
</g>
<g>
	<g>
		<polygon class="st1" points="293.2,366.3 290.4,363.7 302.8,351.2 323.9,351.2 323.9,355 304.5,355 		"/>
	</g>
</g>
<path class="st1" d="M271.7,73.5h-18.6h-3.6c-4.7,0-8.7-4-8.7-8.7s4-8.7,8.7-8.7h0.4c1.1,0,2.3-0.2,3.2-0.6c3.2-1.3,5.5-4.3,5.5-8.1
	c0-4.7-4-8.7-8.7-8.7h-56.1c-4.7,0-8.7,4-8.7,8.7s4,8.7,8.7,8.7h20.9h3.6c4.7,0,8.7,4,8.7,8.7s-4,8.7-8.7,8.7h-2.8
	c-0.4,0-0.6,0-0.8,0c-4.3,0.4-7.7,4.1-7.7,8.5c0,4.7,4,8.7,8.7,8.7h56.1c4.7,0,8.7-4,8.7-8.7C280.4,77.5,276.6,73.5,271.7,73.5z"/>
<path class="st1" d="M321.6,130.2H313c-5.1,0-9-4.1-9-9l0,0c0-5.1,4.1-9,9-9h8.7c5.1,0,9,4.1,9,9l0,0
	C330.7,126.1,326.5,130.2,321.6,130.2z"/>
<circle class="st2" cx="391.5" cy="62.6" r="55.5"/>
<path class="st3" d="M391.7,40.2c7.3,0,12.6,4.7,12.6,10.9c0,4.5-2.3,7.7-6.4,10.4c-4,2.6-5.1,4.3-5.1,7.7v2.3h-4.1v-2.8
	c0-4,1.7-6.6,6-9.4c3.8-2.4,5.3-4.7,5.3-7.9c0-4.3-3.4-7.5-8.3-7.5s-8.3,3-8.7,7.9h-4C379.2,45.3,383.8,40.2,391.7,40.2z
	 M387.7,82.2c0-1.7,1.3-2.8,2.8-2.8c1.7,0,2.8,1.3,2.8,2.8c0,1.7-1.3,2.8-2.8,2.8S387.7,83.7,387.7,82.2z"/>
<path class="st4" d="M337.3,475.1h-25V334.9c0-7,5.6-12.4,12.4-12.4l0,0c7,0,12.4,5.6,12.4,12.4v140.3h0.2V475.1z"/>
<path class="st5" d="M352.9,478.9h-25v-81.3c0-7,5.6-12.4,12.4-12.4l0,0c7,0,12.4,5.6,12.4,12.4v81.3L352.9,478.9L352.9,478.9z"/>
<path class="st3" d="M359.3,559.7h-53.8c-2.8,0-5.3-2.3-5.3-5.3V465c0-2.8,2.3-5.3,5.3-5.3h53.8c2.8,0,5.3,2.3,5.3,5.3v89.4
	C364.6,557.4,362.3,559.7,359.3,559.7z"/>
<path class="st6" d="M212.2,133.2l-4.3-3.2l-7.2-3.6l-12,0.9l-16.2,6.4l-4.1,4.9l-1.3,11.7l3,9l-1.1,3.4c0,0-0.6,9.8-3,9.6l-2.1,0.8
	l3.2,2.6l5.6,4.1l9,2.8h7.7l5.8-2.6c0,0,1.3-0.4,0-1.9c-0.9-0.9-1.3-2.4-1.5-3.8c0-0.6,0-0.9,0-1.3l0,0c0,0,7.7,0.6,11.5-3.6
	s4.5-15.1,5.1-17.1c1.5-1.7,2.1-5.1,2.1-7.7l2.6-5.3L212.2,133.2z"/>
<path class="st6" d="M130.9,170.3l-7.5-8.8c7.5-8.3,29.2-25.2,34.6-26.5c5.5-1.3,7.3,8.5,7.3,8.5l23.5-22
	c-3.2-4.9-12.6-4.7-12.6-4.7c-5.8-3.8-13.4,5.5-23,9.8s-37.1,9-52,20c-14.9,10.7-20,18.8-9.2,30.1c10.7,11.3,19,10.9,19,10.9
	l18.3-2.4L130.9,170.3z"/>
<path class="st7" d="M122.1,161.3c-4.3,8.7-21.3,17.1-26.5,15.1c0.9-2.1,18.8-4.3,24.7-15.1C121.5,159.6,122.1,161.3,122.1,161.3z"
	/>
<path class="st8" d="M103.6,529c0,16-9.6,14.3-9.6,25.8c0,2.6,4.9,4.1,13.9,4.1s15.2-2.1,15.2-5.8c0-3.8,0-3.8,0-3.8
	c0-4.1-5.3-10.9-1.7-21.8L103.6,529z"/>
<path class="st3" d="M100.4,554.6c-1.7-0.9-4.1-0.9-6.4-0.8c0,0.4,0,0.8,0,1.1c0,2.6,4.9,4.1,13.9,4.1s15.2-2.1,15.2-5.8
	c0-0.2,0-0.4,0-0.6c-3.2,0.2-7,0.8-8.5,1.9C111.7,556.5,103.4,556.1,100.4,554.6z"/>
<path class="st3" d="M109.1,527.6c-4.7,7.5-4.9,12.4-0.6,12s8.7-6.6,8.7-13.4L109.1,527.6z"/>
<path class="st8" d="M190.4,529c0.4,13.9-2.3,14.3-2.3,24.5c0.9,4.7,3.4,5.5,9.2,5.5s4.9-2.6,10.2-2.6s1.9,3.4,14.3,3.4
	s16-1.1,16-4.3s-2.6-7.2-17.1-10.2s-12.8-16.9-12.8-16.9L190.4,529z"/>
<path class="st3" d="M206.6,554.4c-8.7,2.6-12.6,0-15.8-0.6c-0.9-0.2-1.9-0.2-2.6,0c1.1,4.3,3.4,5.3,9.2,5.3s4.9-2.6,10.2-2.6
	s1.9,3.4,14.3,3.4c12.4,0,16-1.1,16-4.3c0-0.6,0-1.1-0.2-1.7c-4,0.9-8.1,3.4-13.9,3.8C215.8,558.1,215.3,551.7,206.6,554.4z"/>
<path class="st3" d="M215.6,543.3c-8.7-4.9-7.5-15.1-7.5-15.1l-8.5,0.4C201.3,539.1,207,545.9,215.6,543.3z"/>
<path class="st5" d="M184.2,290.8c-8.5-0.2-28.4,1.7-35.2,4.1v0.4c-1.1,14.1-6.8,38.8-10.5,63.8c-3.8,25-9,49.1-12,59.3
	c-2.8,10.2-10.2,29-12.6,45.6s-5.8,39.7-13.9,66.3h27.9c12.2-53.7,19.6-71.7,26.2-98.1s16.2-60.2,22.6-84.9c1.7-11.7,9-11.5,9-11.5
	c-2.6,9,0.9,88.7,2.8,98.8c-3,7.3-1.3,56.1-3,95.1l25.4,1.5c0.2-10.4,1.7-34.8,1.7-52.5s2.3-80.8,3.6-101.7
	c1.1-19.2,2.1-52.5,0.6-83C205.5,291.7,191,291,184.2,290.8z"/>
<path class="st9" d="M112.1,494.3c4.5-29,10.2-45.4,13-55s10-28.2,13.4-46.1"/>
<path class="st9" d="M139.4,388.9c1.5-26.7,4.7-37.3,7.3-50.3s5.3-25.2,6.6-41.2"/>
<path class="st9" d="M151.8,310c7.3-1.7,8.8-11.3,8.8-18.3"/>
<path class="st9" d="M139.8,424.5c4.7,0.2,15.2-10.2,15.2-10.2"/>
<path class="st9" d="M138.4,430.5c0,0,7.9,0.4,14.1-7"/>
<path class="st9" d="M198.5,425.2c3.6,0.9,12.8-6.8,12.8-6.8"/>
<path class="st9" d="M197.9,432c1.5-3,7.2-1.5,12.6-8.5"/>
<path class="st9" d="M103.1,526.1c2.8-2.1,24.1,0,24.1,0"/>
<path class="st9" d="M187,526.1c1.7-1.5,17.5-0.6,21.8,0"/>
<path class="st9" d="M189.3,529c1.7-9.2,0-12.4,0-12.4"/>
<line class="st9" x1="188.9" y1="513.5" x2="188.9" y2="505.6"/>
<path class="st9" d="M189.3,502.2c-0.9-16.8-0.4-61.9,1.7-66.5c-0.8-16.2-2.3-47.6-2.1-60.4s0-39.9,0-39.9"/>
<path class="st9" d="M173.8,338.6c1.5-1.7,13.9-6.4,18.5-2.6"/>
<path class="st9" d="M183.6,334.9c0.2-3.2-0.4-11.9,2.3-14.3c2.8-2.4,7.5-2.6,7.2-10.7V289"/>
<path class="st9" d="M185.1,321.9c0.4-8.1,0-32.8,0-32.8"/>
<path class="st1" d="M156.1,290.1l-8.3-3.6c-0.8-11.1,0.9-15.6-1.7-38.2s-6.2-27.3-7-45.2c-7.3-6-25-12.2-28.1-15.8
	c0.2-6,7.2-5.3,12.2-26c20.3,2.8,41,10,42.7,10.9c13.9,10.2,22,11.3,29.4,6c9.4,4.7,22,4.5,26,9.8c4,3.8,33.7,52.7,33.7,52.7
	L229.8,255l-15.6,32l-14.3,0.9h-29.4L156.1,290.1z"/>
<path class="st10" d="M115.1,187.6c7.2-3.8,10.4-11.3,12.2-22.6"/>
<path class="st10" d="M141.1,200.1c9-5.1,10.7-24.7,10.7-24.7"/>
<path class="st10" d="M223.2,233.9c-4.1-5.8,0-23.9,0-23.9"/>
<path class="st10" d="M165.4,176.3c10,8.7,22.2,10,30.1,6.6"/>
<path class="st4" d="M184.2,290.8c6.8,0.2,21.3,0.9,32.4,3.4c-0.2-2.6-0.4-5.3-0.6-7.7c-17.7-5.3-56.5-2.6-68.2,0l1.1,8.5
	C155.8,292.5,175.7,290.6,184.2,290.8z"/>
<path class="st11" d="M180.4,280.8v12.4h17.1v-12.4H180.4z M195.5,291.7h-13v-9h13V291.7z"/>
<rect x="184.2" y="228.3" class="st12" width="59.9" height="63.6"/>
<rect x="244" y="228" class="st13" width="36.9" height="63.6"/>
<rect x="243.3" y="228.3" class="st14" width="1.3" height="42.4"/>
<rect x="243.3" y="278.2" class="st14" width="1.3" height="13.6"/>
<polygon class="st14" points="244.1,228.3 185.9,228.3 184.2,230.7 184.2,249.8 230.7,249.8 "/>
<polygon class="st14" points="244.1,228.3 257.4,249.8 281,249.8 281,228.3 "/>
<polygon class="st12" points="184.2,228.3 170.5,248.3 229.2,248.3 244.1,228.3 244.1,228.3 "/>
<polygon class="st13" points="296.8,248.3 281,228.3 244.1,228.3 244.1,228.3 258.9,248.3 "/>
<g>
	<g>
		<path class="st14" d="M203.4,265.8L203.4,265.8l4.5,3.2v1.9l-5.8-4.3V265l5.8-4.5v1.9L203.4,265.8z"/>
		<path class="st14" d="M212.1,273.7l2.8-15.2h1.3l-2.8,15.2H212.1z"/>
		<path class="st14" d="M220.3,260.7l5.8,4.5v1.5l-5.8,4.3v-1.9l4.5-3l0,0l-4.5-3.2V260.7z"/>
	</g>
</g>
<path class="st7" d="M175.9,154.1c1.1-1.9,1.1-7-0.6-7.5c-1.5-2.1-5.5-1.1-3.6,1.5c1.7,2.8,1.7,0.2,1.7,0.2
	C174.2,150,172.9,154.1,175.9,154.1z"/>
<path class="st7" d="M181,165.8c-3-4.3-5.1-6.8-5.5-5.8c-0.8,2.1,2.6,4.5,4.3,7.3c2.1,4.9,11.7,7.3,14.3,7c0-0.6,0-0.9,0-1.3
	C189.8,173.1,183.8,170.1,181,165.8z"/>
<path class="st4" d="M176.9,146.6c3.4-1.1,3.8-5.3,6.4-6.2c2.6-0.8,3.6-2.3,3.6-6.2s5.5-2.6,6.2-1.5c2.1,1.5,6.2-0.4,7,1.9
	c3.6,0,5.5,0.4,5.5,1.9c2.6-0.9,5.5-0.8,5.3,0.8c2.1,0.4,3.2,2.4,2.1,7.2c4.7-1.7,3.6-10,3.6-10c3.2-0.6,2.3-7.3-2.1-7.7
	c-4.3,0.6-5.8-4.9-8.7-2.6c-2.6-1.7-4.7-3-6.4-2.1c-3-2.1-10.7-5.1-12.2-3.4c-4.7-0.9-9.2,3.4-11.7,6.2c-5.8,1.7-12,7.9-10.5,13.6
	c-1.3,7.9,0.8,14.3,2.8,16.2c1.1,4.7,2.6,5.6,1.9,7.9c2.4-4.3,5.5-5.3,5.5-5.3s-2.3-3.6-4.3-4.9c-1.9-1.3-1.3-6,0-7.7
	C171.6,143,177.2,141.1,176.9,146.6z"/>
<path class="st15" d="M193.8,148.7c1.5,0,1.9,1.5,1.9,2.3c0,0.9-1.5,1.3-2.6,0.8C191.9,151.1,191.9,148.7,193.8,148.7z"/>
<path class="st15" d="M207.4,151.7c1.1,0.4,1.5,2.1,1.1,2.4c-0.2,0.6-1.5,0.9-2.1,0.4C206,153.9,205.8,151.3,207.4,151.7z"/>
<path class="st16" d="M202.8,150.7c-1.9,3.2,0.2,5.8-0.8,7.3c-1.1,1.5-3.4,0.6-3.4,0.6"/>
<path class="st16" d="M192.5,161.1c0.8,1.5,2.3,2.1,4,1.7c1.7-0.2,4-0.2,3.8,0.9s-3.6,2.4-5.8,1.3"/>
<path class="st17" d="M192.1,143.2c0.9,1.7,1.9,2.6,3.6,2.4s4.1-0.6,4,2.3"/>
<path class="st17" d="M205.5,147.9c0,0,4.9-3.4,6.2,1.1"/>
</svg>
