<?xml version="1.0" encoding="utf-8"?>
<!-- Generator: Adobe Illustrator 24.0.2, SVG Export Plug-In . SVG Version: 6.00 Build 0)  -->
<svg version="1.1" id="Layer_1" xmlns="http://www.w3.org/2000/svg" xmlns:xlink="http://www.w3.org/1999/xlink" x="0px" y="0px"
	 viewBox="0 0 496.2 496.2" style="enable-background:new 0 0 496.2 496.2;" xml:space="preserve">
<style type="text/css">
	.st0{fill:#F2F2F2;}
	.st1{fill:#1D1D1E;}
	.st2{fill:#D4D6D8;}
	.st3{fill:#E2A379;}
	.st4{fill:#F3FAFF;}
	.st5{fill:#86B4D1;}
	.st6{fill:#4A4A54;}
	.st7{fill:#F4B382;}
	.st8{fill:#D89364;}
	.st9{fill:#CE8757;}
	.st10{fill:#141414;}
</style>
<path class="st0" d="M496.2,248.1C496.2,111.1,385.1,0,248.1,0C111.1,0,0,111.1,0,248.1c0,137,111.1,248.1,248.1,248.1
	C385.1,496.2,496.2,385.1,496.2,248.1z"/>
<path class="st1" d="M248.1,496.2c70.2,0,133.6-29.2,178.7-76c-2.8-15.1-5.6-28.9-8.3-37.4c-8.5-27.3-81.2-49.3-170.8-49.3
	S86.1,355.5,77.6,382.7c-2.6,8.5-5.5,22.2-8.3,37.4C114.5,467,177.9,496.2,248.1,496.2z"/>
<g>
	<path class="st2" d="M248.2,474.4c17.7,0,37.8-139,37.8-139l-38.1,26.7l-37.5-26.7C210.2,335.4,230.5,474.4,248.2,474.4z"/>
	<polygon class="st2" points="210.2,335.4 247.8,363.5 286,335.4 287.9,322.2 247.8,317 208.3,322.2 	"/>
</g>
<path class="st3" d="M287,282.1h-77.8c12.1,36.6,1,53.3,1,53.3l26.9,6.1h22l26.9-6.1C286,335.4,274.8,318.7,287,282.1z"/>
<g>
	<polygon class="st4" points="282.1,358.7 287.9,322.2 305.7,337.8 	"/>
	<polygon class="st4" points="214.1,358.7 208.3,322.2 190.4,337.8 	"/>
	<path class="st4" d="M305.7,337.8l-17.9-15.5l-39.8,19.2c0,0,34,17.3,34.2,17.1L305.7,337.8z"/>
	<path class="st4" d="M190.4,337.8l17.9-15.5l39.8,19.2c0,0-34,17.3-34.2,17.1L190.4,337.8z"/>
</g>
<g>
	<polygon class="st5" points="248,341.5 232.3,349.4 248,375 263.8,349.4 	"/>
	<path class="st5" d="M248.2,474.4c5.1,0,10.4-11.5,15.3-27.9l-11.4-84.6H244l-11.3,84.3C237.7,462.8,243,474.4,248.2,474.4z"/>
</g>
<g>
	<path class="st6" d="M196.6,332.4l-12.5,6.4l8,55.3l16.3-3.7l-12,14.7l51.7,84.4l0-15.1c0,0-34-115.7-34.2-115.8L196.6,332.4z"/>
	<path class="st6" d="M299.6,332.4l12.5,6.4l-8,55.3l-16.3-3.7l12,14.7l-51.7,84.4l0-15.1c0,0,34-115.7,34.2-115.8L299.6,332.4z"/>
</g>
<path class="st7" d="M336.3,175.2c0-92.4-39.5-113.6-88.3-113.6c-48.7,0-88.3,21.2-88.3,113.6c0,31.3,6.2,55.8,15.5,74.7
	c20.4,41.6,55.7,56.1,72.8,56.1s52.4-14.5,72.8-56.1C330.1,230.9,336.3,206.4,336.3,175.2z"/>
<path class="st8" d="M274.1,265.2c0,2.3-11.6,8.6-26,8.6s-26-6.3-26-8.6c0-1.4,8.3-5.5,13.8-6.2c3.5-0.5,12.2,2.6,12.2,2.6
	s8.6-3.1,12.1-2.6C265.8,259.7,274.1,265.2,274.1,265.2z"/>
<path class="st9" d="M274.1,265.2c0,2.3-11.6,11.2-26,11.2s-26-8.9-26-11.2c0,0,10.6,1.1,26,1.1S274.1,265.2,274.1,265.2z"/>
<path class="st7" d="M170.4,238.6c-8.4,1.4-14.4,0.1-19.1-27.7s1.7-31.5,10.1-32.9L170.4,238.6z"/>
<g>
	<path class="st10" d="M336.3,178.2c11.4-22.8,8.4-43.1,2.7-56.5c-9.3-22-21.1-28.6-21.1-28.6c-7.6-24.7-41.4-33.1-69.9-33.1
		c-48.7,0-95,25.7-88.3,118.2l20.3-3.4c0-14.8,111.4-43.8,122-56.8c0,26,4,38,14.1,56.8L336.3,178.2z"/>
	<path class="st10" d="M165.5,140.8c-4.3,10.9-5.6,24.4-5.6,37.5c0,0,8.8-1.9,8.8,2.6l2.8,27.6l3.9-1.9c-0.3-23,4.9-31.8,4.9-31.8
		L165.5,140.8z"/>
</g>
<path class="st7" d="M325.8,238.6c8.4,1.4,14.4,0.1,19.1-27.7s-1.7-31.5-10.1-32.9L325.8,238.6z"/>
<path class="st10" d="M330.8,140.8c4.3,10.9,5.6,24.4,5.6,37.5c0,0-8.8-1.9-8.8,2.6l-2.8,27.6l-3.9-1.9c0.3-23-4.9-31.8-4.9-31.8
	L330.8,140.8z"/>
</svg>
