<?xml version="1.0" encoding="utf-8"?>
<!-- Generator: Adobe Illustrator 24.0.2, SVG Export Plug-In . SVG Version: 6.00 Build 0)  -->
<svg version="1.1" id="Layer_1" xmlns="http://www.w3.org/2000/svg" xmlns:xlink="http://www.w3.org/1999/xlink" x="0px" y="0px"
	 viewBox="0 0 363.2 423.5" style="enable-background:new 0 0 363.2 423.5;" xml:space="preserve">
<path id="line-curve-bottom" d="M325.1,414.4l-88.1-171.3c0.6-0.2,1.2-0.4,1.8-0.6h-57.3l4.1,8.5h0.1l79,163.5h-31.4v9h129.7v-9
	H325.1z"/>
<path id="line-curve" d="M303.4,195.2c15.7-22.7,23.5-46.8,23.5-72.1c0-33.4-12.9-62.2-38.6-86.6C262.6,12.2,226.6,0,180.4,0h-66.3
	v9.7h43.5c32.6,1.6,58.8,12.5,78,33.4c20.7,22.7,31.1,49.6,31.1,80.5c0,31-10.1,58.4-30.2,82.3c-14.7,17.5-33.6,28.4-56.5,33
	l1.7,3.5h57.3C266.5,233.2,288.1,217.4,303.4,195.2z"/>
<path id="line-bottom" d="M118.3,414.4h-0.4c-0.7-0.3-1.3-0.8-2-1.1c-7.3-3.1-13.6-7.5-19.5-12.5c-13.2-11.4-22.8-27.6-28.4-49.3
	v-2.8h-0.9h-1v3.1c-5.8,22.2-15.9,38.8-30,50.1c-5.6,4.5-11.7,8.4-18.6,11.3c-0.7,0.3-1.3,0.7-2,1.1h-0.4v0H0v9h132.7v-9
	L118.3,414.4L118.3,414.4z"/>
<path id="line-top" d="M0,0v9.1h18.5c0.1,0,0.1,0.1,0.2,0.1c6.5,2.8,12.3,6.6,17.5,11c13.6,11.4,23.5,184.3,29.2,206.5v2.8h0.9h1
	v-3.1C73,204.6,82.9,32,96.5,20.6c5.2-4.3,10.8-8,17.1-10.9h0.4V0H0z"/>
</svg>
