<?xml version="1.0" encoding="utf-8"?>
<!-- Generator: Adobe Illustrator 24.0.2, SVG Export Plug-In . SVG Version: 6.00 Build 0)  -->
<svg version="1.1" id="Layer_1" xmlns="http://www.w3.org/2000/svg" xmlns:xlink="http://www.w3.org/1999/xlink" x="0px" y="0px"
	 viewBox="0 0 289 337" style="enable-background:new 0 0 289 337;" xml:space="preserve">
<g>
	<path d="M258.8,329.8l-70.1-136.3c22.7-7.4,40.3-20.1,52.8-38.2c12.5-18.1,18.7-37.2,18.7-57.4c0-26.6-10.2-49.5-30.7-68.9
		C209,9.7,180.3,0,143.5,0H0v7.2h14.7c0.1,0,0.1,0.1,0.1,0.1c5.2,2.2,9.8,5.3,14,8.8C39.6,25.2,47.5,162.8,52,180.4v2.2h0.7h0.8
		v-2.5C58.1,162.8,66,25.4,76.8,16.4c4.1-3.4,8.6-6.4,13.6-8.7h35c26,1.3,46.8,9.9,62,26.6c16.5,18.1,24.7,39.5,24.7,64.1
		c0,24.7-8,46.5-24,65.5c-11.7,13.9-26.7,22.6-45,26.3l4.6,9.5h0.1l62.9,130.1h-25v7.2H289v-7.2H258.8z"/>
	<path d="M94.1,329.8h-0.3c-0.5-0.3-1-0.6-1.6-0.8c-5.8-2.4-10.8-5.9-15.5-10c-10.5-9.1-18.1-22-22.6-39.2v-2.2h-0.7h-0.8v2.5
		C48.1,297.8,40,311,28.8,320c-4.5,3.6-9.3,6.7-14.8,9c-0.6,0.2-1,0.6-1.6,0.8h-0.3v0H0v7.2h105.6v-7.2L94.1,329.8L94.1,329.8z"/>
</g>
</svg>
