<?xml version="1.0" encoding="utf-8"?>
<!-- Generator: Adobe Illustrator 23.0.2, SVG Export Plug-In . SVG Version: 6.00 Build 0)  -->
<svg version="1.1" id="Layer_1" focusable="false" xmlns="http://www.w3.org/2000/svg" xmlns:xlink="http://www.w3.org/1999/xlink"
	 x="0px" y="0px" viewBox="0 0 576 512" style="enable-background:new 0 0 576 512;" xml:space="preserve">
<style type="text/css">
	.st0{fill:#B2B2B2;}
</style>
<path class="st0" d="M527.9,32H48.1C21.5,32,0,53.5,0,80v352c0,26.5,21.5,48,48.1,48h479.8c26.6,0,48.1-21.5,48.1-48V80
	C576,53.5,554.5,32,527.9,32L527.9,32z M54.1,80h467.8c3.3,0,6,2.7,6,6v42H48.1V86C48.1,82.7,50.8,80,54.1,80z M521.9,432H54.1
	c-3.3,0-6-2.7-6-6V256h479.8v170C527.9,429.3,525.2,432,521.9,432z M192,332v40c0,6.6-5.4,12-12,12h-72c-6.6,0-12-5.4-12-12v-40
	c0-6.6,5.4-12,12-12h72C186.6,320,192,325.4,192,332z M384,332v40c0,6.6-5.4,12-12,12H236c-6.6,0-12-5.4-12-12v-40
	c0-6.6,5.4-12,12-12h136C378.6,320,384,325.4,384,332z"/>
</svg>
