<?xml version="1.0" encoding="utf-8"?>
<!-- Generator: Adobe Illustrator 24.0.2, SVG Export Plug-In . SVG Version: 6.00 Build 0)  -->
<svg version="1.1" id="Layer_1" xmlns="http://www.w3.org/2000/svg" xmlns:xlink="http://www.w3.org/1999/xlink" x="0px" y="0px"
	 viewBox="0 0 414 48" style="enable-background:new 0 0 414 48;" xml:space="preserve">
<style type="text/css">
	.st0{fill:#E9E8E9;}
</style>
<g>
	<path class="st0" d="M3.9,46V2.3H0v-1h19.4c5,0,8.9,1.3,11.6,3.9c2.8,2.6,4.2,5.7,4.2,9.3c0,2.7-0.8,5.3-2.5,7.8
		c-1.7,2.4-4.1,4.2-7.1,5.2L35,46h4.1v1h-14v-1h3.4L20,28.4h-9.6V46h3.9v1H0v-1H3.9z M10.4,27.4h5.9c0,0,0.1,0,0.2,0
		c3.8,0,6.8-1.3,9-3.9c2.2-2.6,3.2-5.5,3.2-8.9c0-3.3-1.1-6.2-3.3-8.7c-2.2-2.4-5.3-3.7-9.3-3.7h-5.7V27.4z"/>
	<path class="st0" d="M41.4,46L55.1,1.4h5.5L75.2,46h4.3v1H65.3v-1h3.5l-5.6-18.1H48L42.4,46h4.9v1h-11v-1H41.4z M62.8,26.9
		L55.5,3.4l-7.3,23.4H62.8z"/>
	<path class="st0" d="M71.8,2.3v-1H86v1h-3.8l13.5,43.9h0.5l12.1-38.6l-1.9-6.3h6.5l13.4,44.8h0.3l12.7-43.8h-4.9v-1h11v1h-5.1
		L127.7,46h2.9v1h-14.3v-1h3.5l-11-36.6L97.2,46h2.7v1H85.7v-1h3.5L75.7,2.3H71.8z"/>
	<path class="st0" d="M160.7,1.4c5.2,0,9,1.1,11.4,3.3c2.5,2.2,3.7,4.9,3.7,8.1c0,2.3-0.8,4.5-2.3,6.6s-3.4,3.2-5.7,3.5
		c2.7,0.3,5,1.6,6.9,3.8c1.9,2.3,2.9,4.7,2.9,7.5c0,3.4-1.1,6.4-3.4,8.9c-2.3,2.5-5.4,3.8-9.5,3.8h-22.9v-1h3.9V2.3h-3.9v-1H160.7z
		 M152.2,2.3v20.1h6.8c3.6,0,6.2-1,7.9-2.8c1.6-1.8,2.5-4.2,2.5-7c0-2.9-0.9-5.4-2.7-7.3c-1.8-1.9-4.4-2.9-7.7-2.9H152.2z M160.7,46
		c3.3,0,5.9-1.1,7.7-3.3c1.8-2.2,2.7-4.8,2.7-8c0-3-1.1-5.6-3.2-7.9c-2.2-2.2-5.1-3.3-8.9-3.3h-6.8V46H160.7z"/>
	<path class="st0" d="M183.8,24.1c0-3,0.5-5.9,1.4-8.6c0.9-2.8,2.3-5.3,4.2-7.7c1.8-2.3,4.3-4.2,7.5-5.6c3.2-1.4,6.8-2.1,10.8-2.1
		c4.1,0,7.7,0.7,10.9,2.1c3.2,1.4,5.7,3.3,7.5,5.6c1.8,2.3,3.2,4.9,4.2,7.6c0.9,2.7,1.4,5.6,1.4,8.6s-0.5,5.8-1.4,8.6
		c-0.9,2.7-2.3,5.3-4.2,7.6c-1.8,2.3-4.3,4.2-7.5,5.6c-3.2,1.4-6.8,2.1-10.9,2.1c-4.1,0-7.7-0.7-10.9-2.1c-3.2-1.4-5.7-3.2-7.5-5.6
		c-1.8-2.3-3.2-4.9-4.1-7.6C184.2,29.9,183.8,27.1,183.8,24.1z M192.2,34.8c1.2,3.4,3.2,6.2,5.9,8.6c2.7,2.3,5.9,3.5,9.6,3.5
		c3.8,0,7-1.2,9.7-3.5c2.7-2.3,4.7-5.2,5.9-8.5c1.2-3.4,1.8-6.9,1.8-10.7c0-2.8-0.4-5.6-1.1-8.2c-0.7-2.7-1.8-5.1-3.2-7.4
		c-1.4-2.3-3.2-4.1-5.5-5.5C213,1.7,210.5,1,207.7,1c-3.7,0-6.9,1.2-9.6,3.6c-2.7,2.4-4.7,5.3-5.9,8.7c-1.2,3.4-1.9,7-1.9,10.8
		C190.3,27.9,190.9,31.4,192.2,34.8z"/>
	<path class="st0" d="M235.8,1.4h14.3v1h-3.9v32.2c0,4.1,1.1,7.2,3.4,9.3c2.3,2.1,5,3.2,8.1,3.2c3.1,0,5.8-1.1,8.1-3.2
		c2.3-2.1,3.4-5.2,3.4-9.3V2.3h-3.9v-1h14.3v1h-3.9v29.1c0,5.2-1.8,9.3-5.3,12.2c-3.5,2.9-7.7,4.4-12.6,4.4c-4.8,0-9.1-1.4-12.6-4.4
		c-3.6-2.9-5.4-7-5.4-12.2V2.3h-3.9V1.4z"/>
	<path class="st0" d="M284.7,24.2c0-3.7,0.6-7.1,1.8-10.3c1.2-3.1,2.8-5.7,4.8-7.7c2-2,4.3-3.5,6.9-4.6c2.6-1.1,5.3-1.7,8.1-1.7
		c5.9,0,10.8,2.1,14.7,6.2l0.3-4.9h1l0.7,12.9h-1.6c-1.2-4.2-3.1-7.3-5.8-9.6c-2.7-2.2-5.6-3.3-8.7-3.3c-4.3,0-8.1,2-11.2,6
		c-3.1,4-4.7,9.6-4.7,16.6c0,0.1,0,0.2,0,0.3c0,7,1.5,12.5,4.4,16.6c2.9,4,6.5,6.1,10.8,6.1c3.2,0,6-1.7,8.3-5
		c2.4-3.3,3.5-7.7,3.5-13.1c0-0.5,0-1.1-0.1-1.7h-10.8V26h16.8L324,46.9h-1.2l-1.7-9.1C318,44.6,313,48,306.3,48
		c-6,0-11.1-2.1-15.3-6.2C286.8,37.6,284.7,31.7,284.7,24.2z"/>
	<path class="st0" d="M330.7,46.9v-1h3.9V2.3h-3.9v-1H345v1h-3.9v18h18v-18h-3.9v-1h14.3v1h-3.9V46h3.9v1h-14.3v-1h3.9V21.4h-18V46
		h3.9v1H330.7z"/>
	<path class="st0" d="M373,13.1l1.3-11.8h38.4l1.3,11.8h-1c-0.8-3.9-1.6-6.7-2.5-8.3c-0.8-1.6-2-2.4-3.4-2.4h-10.3V46h3.9v1h-14.3
		v-1h3.9V2.3h-10.4c-1.5,0-2.6,0.8-3.4,2.4c-0.8,1.6-1.6,4.4-2.5,8.3H373z"/>
	<g>
		<rect x="207.6" y="16.8" class="st0" width="0.2" height="14.3"/>
		
			<rect x="207.6" y="18.4" transform="matrix(-1.836970e-16 1 -1 -1.836970e-16 231.6817 -183.7383)" class="st0" width="0.3" height="11.2"/>
		<path class="st0" d="M202.1,24c2.8-1.1,4.7-3.5,5.6-7.2c0.9,3.7,2.8,6.1,5.7,7.2c-2.9,1.1-4.8,3.5-5.7,7.2
			C206.8,27.4,204.9,25,202.1,24z"/>
	</g>
</g>
</svg>
