<?xml version="1.0" encoding="utf-8"?>
<!-- Generator: Adobe Illustrator 23.0.2, SVG Export Plug-In . SVG Version: 6.00 Build 0)  -->
<svg version="1.1" id="Layer_1" xmlns="http://www.w3.org/2000/svg" xmlns:xlink="http://www.w3.org/1999/xlink" x="0px" y="0px"
	 viewBox="0 0 358.5 900.5" style="enable-background:new 0 0 358.5 900.5;" xml:space="preserve">
<style type="text/css">
	.st0{fill:#DADADA;}
	.st1{fill:none;stroke:#1D1D1B;stroke-miterlimit:10;}
	.st2{fill:none;stroke:#3C3C3B;stroke-width:0.5;stroke-miterlimit:10;}
	.st3{fill:none;stroke:#3C3C3B;stroke-width:0.5;stroke-miterlimit:10;stroke-dasharray:1.993,1.993;}
	.st4{fill:none;stroke:#3C3C3B;stroke-width:0.5;stroke-miterlimit:10;stroke-dasharray:2.068,2.068;}
	.st5{fill:none;stroke:#3C3C3B;stroke-width:0.5;stroke-miterlimit:10;stroke-dasharray:1.927,1.927;}
	.st6{fill:none;stroke:#3C3C3B;stroke-width:0.5;stroke-miterlimit:10;stroke-dasharray:1.952,1.952;}
	.st7{fill:#B2B2B2;}
	.st8{font-family:'MyriadPro-Regular';}
	.st9{font-size:17.4291px;}
</style>
<path class="st0" d="M344.3,470c-6-11.6-6.8-23.7-6.8-23.7c7-73.7-3.4-101.4-3.4-101.4c-6.5-15.9-6.6-26.1-6.6-26.1l-0.2-78.2
	c1.5-52.2-5.3-66.7-5.3-66.7c-3.4-13.5-29.5-12.1-29.5-12.1c-20.1-0.8-35.3-16.9-35.3-16.9c-13.5-10.1-9.7-44.9-9.7-44.9h18.4
	c0,0,14-7.7,12.6-23.2c0,0,1-61.8-39.6-74.9c0,0-4.3-1.4-10.6-1.9c-6.3,0.5-10.6,1.9-10.6,1.9c-40.6,13-39.6,74.9-39.6,74.9
	c-1.4,15.5,12.6,23.2,12.6,23.2h18.4c0,0,3.9,34.8-9.7,44.9c0,0-15.1,16.1-35.3,16.9c0,0-26.1-1.4-29.5,12.1c0,0-6.8,14.5-5.3,66.7
	l-0.2,78.2c0,0,0,10.1-6.6,26.1c0,0-10.4,27.8-3.4,101.4c0,0-0.7,12.1-6.8,23.7c0,0-9.5,23.4,2.4,42.5c0,0,8.2,13,17.4,17.4
	c0,0,7.1,1.9,2.9-6.3c0,0-13-16.9-9.7-30.9c0,0,1.6-8.2,5.8-1.5c0,0,3.1,4.8-1.6,21.3l1.9,2.9c0,0,11.8-15,5-48.3
	c0,0-3.9-19.8-1.4-31.9c0,0,9.2-56.5,18.8-79.2c0,0,6.8-13,4.3-32.8c0,0,2.4-43,1.5-70.5c0,0,11.6,40.6,13.5,69.5
	c0,0,1.9,21.3-5.6,36.7c0,0-24.8,36.7-23.4,89.8c1.5,53.1,11.1,84.5,11.1,84.5s11.6,39.1,14.5,47.8c0,0,6.3,29,0,43
	c0,0-10.6,41.1,2.4,80.7l25.1,96.6c0,0,9.2,33.3,2.9,45.9c0,0-5.3,13.5-15.5,22.2c0,0-2.9,1.9-1.4,7.2c0,0,5.8,14.6,28,10.2
	c0,0,12.1-2.9,12.1-11.6c0,0-1.4-224.1-3.4-246.3c0,0,3.4-131.9,1.5-164.2h6.7h6.7c-1.9,32.4,1.5,164.2,1.5,164.2
	c-1.9,22.2-3.4,246.3-3.4,246.3c0,8.7,12.1,11.6,12.1,11.6c22.2,4.4,28-10.2,28-10.2c1.5-5.3-1.4-7.2-1.4-7.2
	c-10.1-8.7-15.5-22.2-15.5-22.2c-6.3-12.6,2.9-45.9,2.9-45.9l25.1-96.6c13-39.6,2.4-80.7,2.4-80.7c-6.3-14,0-43,0-43
	c2.9-8.7,14.5-47.8,14.5-47.8s9.7-31.4,11.1-84.5c1.4-53.1-23.4-89.8-23.4-89.8c-7.5-15.5-5.6-36.7-5.6-36.7
	c1.9-29,13.5-69.5,13.5-69.5c-1,27.5,1.5,70.5,1.5,70.5c-2.4,19.8,4.3,32.8,4.3,32.8c9.7,22.7,18.8,79.2,18.8,79.2
	c2.4,12.1-1.4,31.9-1.4,31.9c-6.8,33.3,5,48.3,5,48.3l1.9-2.9c-4.7-16.4-1.6-21.3-1.6-21.3c4.2-6.8,5.8,1.5,5.8,1.5
	c3.4,14-9.7,30.9-9.7,30.9c-4.2,8.2,2.9,6.3,2.9,6.3c9.2-4.3,17.4-17.4,17.4-17.4C353.9,493.3,344.3,470,344.3,470z"/>
<line class="st1" x1="221.7" y1="464.6" x2="221.7" y2="887.6"/>
<line class="st2" x1="221.7" y1="889.7" x2="219.1" y2="889.7"/>
<line class="st3" x1="213.8" y1="889.7" x2="28" y2="889.7"/>
<line class="st2" x1="25.3" y1="889.7" x2="22.7" y2="889.7"/>
<line class="st1" x1="144.8" y1="459.3" x2="312" y2="459.3"/>
<line class="st1" x1="172.4" y1="343.5" x2="284.5" y2="343.5"/>
<line class="st1" x1="159.9" y1="252.6" x2="297" y2="252.6"/>
<line class="st2" x1="157.6" y1="252.6" x2="154.9" y2="252.6"/>
<line class="st4" x1="149.5" y1="252.6" x2="43.5" y2="252.6"/>
<line class="st2" x1="40.8" y1="252.6" x2="38.2" y2="252.6"/>
<line class="st2" x1="170.1" y1="344.2" x2="167.4" y2="344.2"/>
<line class="st5" x1="162.4" y1="344.2" x2="43.3" y2="344.2"/>
<line class="st2" x1="40.8" y1="344.2" x2="38.2" y2="344.2"/>
<line class="st2" x1="140.9" y1="458.7" x2="138.3" y2="458.7"/>
<line class="st6" x1="133.2" y1="458.7" x2="43.4" y2="458.7"/>
<line class="st2" x1="40.8" y1="458.7" x2="38.2" y2="458.7"/>
<path class="st7" d="M28,251.7c0,6.6-5.3,11.9-11.9,11.9s-11.9-5.3-11.9-11.9c0-6.6,5.3-11.9,11.9-11.9S28,245.1,28,251.7"/>
<text transform="matrix(1 0 0 1 11.9354 256.9411)" class="st8 st9">1</text>
<path class="st7" d="M28,345.3c0,6.6-5.3,11.9-11.9,11.9s-11.9-5.3-11.9-11.9c0-6.6,5.3-11.9,11.9-11.9S28,338.8,28,345.3"/>
<text transform="matrix(1 0 0 1 11.9354 350.613)" class="st8 st9">2</text>
<path class="st7" d="M28,457.7c0,6.6-5.3,11.9-11.9,11.9s-11.9-5.3-11.9-11.9c0-6.6,5.3-11.9,11.9-11.9S28,451.2,28,457.7"/>
<text transform="matrix(1 0 0 1 11.9354 463.0212)" class="st8 st9">3</text>
<path class="st7" d="M28,888.6c0,6.6-5.3,11.9-11.9,11.9s-11.9-5.3-11.9-11.9c0-6.6,5.3-11.9,11.9-11.9S28,882.1,28,888.6"/>
<text transform="matrix(1 0 0 1 11.9354 893.9119)" class="st8 st9">4</text>
</svg>
